#!OML:ASF H:\ManfredETheater\Project 1\Capture day 1\Session 1\subject.ASF
:FULLY-SPECIFIED
:DEGREES
333
root 1.17556 15.5308 -26.3685 -156.071 -1.30872 -187.956
lowerback 15.5459 -4.03973 -4.73586
upperback -1.91451 -6.12874 1.86663
thorax -10.1071 -2.60075 6.1508
lowerneck -18.0627 1.68634 0.153446
upperneck 4.74697 2.3994 -0.13268
head 4.30504 1.2486 0.148417
rclavicle -2.98177e-015 7.15625e-015
rhumerus -79.9515 2.28791 -84.3456
rradius 81.2914
rwrist -14.4374
rhand -28.4481 8.11933
rfingers 7.12502
rthumb -1.81873 -21.8527
lclavicle -2.98177e-015 7.15625e-015
lhumerus -16.8916 -9.82161 91.2565
lradius 131.228
lwrist 19.2387
lhand -21.1634 -9.66348
lfingers 7.12502
lthumb 5.21662 20.2523
rfemur -79.6492 -12.0369 19.722
rtibia 86.0682
rfoot -16.5685 -2.29608
rtoes -46.5877
lfemur 4.37995 -8.8355 -29.4387
ltibia 31.9162
lfoot -5.8964 -7.90409
ltoes -26.9825
334
root 1.18806 15.5506 -26.6953 -155.578 -1.04438 -187.897
lowerback 15.5471 -4.07697 -4.66369
upperback -1.96651 -6.15262 1.98555
thorax -10.1565 -2.60827 6.24936
lowerneck -18.1564 1.75999 0.0722336
upperneck 4.68151 2.53125 -0.242083
head 4.29954 1.30699 0.139309
rclavicle 3.598e-014 -4.81059e-014
rhumerus -80.2239 2.1877 -84.175
rradius 81.7867
rwrist -14.2245
rhand -28.2862 8.41054
rfingers 7.12502
rthumb -1.66229 -21.5627
lclavicle 3.598e-014 -4.81059e-014
lhumerus -17.196 -10.6525 90.8034
lradius 132.228
lwrist 18.5548
lhand -20.7244 -9.96761
lfingers 7.12502
lthumb 5.64046 19.9373
rfemur -78.9929 -11.7123 20.1573
rtibia 85.6375
rfoot -16.2589 -2.33358
rtoes -45.6869
lfemur 4.33214 -9.22186 -29.5205
ltibia 31.4454
lfoot -1.25813 -8.06548
ltoes -25.8778
335
root 1.1989 15.5718 -27.03 -155.095 -0.739123 -187.816
lowerback 15.533 -4.08448 -4.55986
upperback -2.00074 -6.13148 2.09224
thorax -10.1877 -2.59812 6.30445
lowerneck -18.2513 1.81424 -0.0253242
upperneck 4.58166 2.64247 -0.346632
head 4.28322 1.35627 0.132362
rclavicle 1.15295e-014 -6.36111e-015
rhumerus -80.1681 1.90559 -83.8908
rradius 82.027
rwrist -14.1325
rhand -28.1473 8.55123
rfingers 7.12502
rthumb -1.52822 -21.423
lclavicle 1.15295e-014 -6.36111e-015
lhumerus -17.7906 -11.6604 90.4875
lradius 132.743
lwrist 17.5708
lhand -20.2796 -10.1567
lfingers 7.12502
lthumb 6.06988 19.7364
rfemur -78.0422 -11.3986 20.5888
rtibia 85.2549
rfoot -16.231 -2.73069
rtoes -44.507
lfemur 4.10021 -9.60981 -29.5926
ltibia 31.1705
lfoot 3.7944 -8.0613
ltoes -24.3815
336
root 1.20906 15.594 -27.3692 -154.605 -0.40941 -187.725
lowerback 15.4974 -4.06149 -4.44325
upperback -2.00961 -6.06797 2.18486
thorax -10.1868 -2.57158 6.3238
lowerneck -18.3654 1.84761 -0.126473
upperneck 4.43294 2.7298 -0.448447
head 4.25449 1.39575 0.124699
rclavicle 7.65321e-014 2.74323e-014
rhumerus -79.7565 1.43818 -83.5186
rradius 82.0333
rwrist -14.2264
rhand -28.0407 8.53687
rfingers 7.12502
rthumb -1.42522 -21.4381
lclavicle 7.65321e-014 2.74323e-014
lhumerus -18.6255 -12.8217 90.3366
lradius 132.728
lwrist 16.4134
lhand -19.8664 -10.2512
lfingers 7.12502
lthumb 6.46879 19.63
rfemur -76.8517 -11.0921 20.9856
rtibia 84.852
rfoot -16.5515 -3.56613
rtoes -43.4332
lfemur 3.62726 -9.97928 -29.6395
ltibia 31.1816
lfoot 9.1192 -7.87651
ltoes -22.582
337
root 1.21852 15.6172 -27.7111 -154.101 -0.0859325 -187.633
lowerback 15.4578 -4.01895 -4.30563
upperback -2.00647 -5.97575 2.26503
thorax -10.1774 -2.5338 6.31032
lowerneck -18.4761 1.86263 -0.226386
upperneck 4.22362 2.7955 -0.548384
head 4.20627 1.42687 0.115145
rclavicle 2.54444e-014 3.49861e-014
rhumerus -79.0123 0.802959 -83.086
rradius 81.8297
rwrist -14.5189
rhand -27.9605 8.38154
rfingers 7.12502
rthumb -1.34777 -21.594
lclavicle 2.54444e-014 3.49861e-014
lhumerus -19.6993 -14.0748 90.3835
lradius 132.157
lwrist 15.2186
lhand -19.5007 -10.2563
lfingers 7.12502
lthumb 6.82183 19.6138
rfemur -75.4764 -10.8083 21.3276
rtibia 84.3804
rfoot -17.2069 -4.80082
rtoes -42.6302
lfemur 2.87969 -10.3015 -29.6419
ltibia 31.5823
lfoot 14.4924 -7.54253
ltoes -20.3719
338
root 1.22792 15.641 -28.0536 -153.584 0.227753 -187.539
lowerback 15.422 -3.95351 -4.15099
upperback -1.98902 -5.8518 2.32965
thorax -10.1615 -2.4831 6.26279
lowerneck -18.5783 1.85549 -0.324751
upperneck 3.93806 2.83444 -0.638454
head 4.1328 1.4483 0.105539
rclavicle -2.62396e-014 3.57812e-015
rhumerus -77.9387 0.00621332 -82.626
rradius 81.4377
rwrist -14.9594
rhand -27.9085 8.08083
rfingers 7.12502
rthumb -1.29754 -21.895
lclavicle -2.62396e-014 3.57812e-015
lhumerus -20.9933 -15.3462 90.6535
lradius 131.029
lwrist 14.1233
lhand -19.1527 -10.1717
lfingers 7.12502
lthumb 7.15773 19.6873
rfemur -73.9787 -10.5262 21.5964
rtibia 83.8046
rfoot -18.1069 -6.37124
rtoes -42.2126
lfemur 1.85307 -10.515 -29.5874
ltibia 32.4278
lfoot 19.683 -7.13971
ltoes -17.5654
